<svg xmlns="http://www.w3.org/2000/svg" fill="none" viewBox="0 0 250 250" id="Texture-Drawing-Curly--Streamline-Textures" height="250" width="250"><desc>Texture Drawing Curly Streamline Element: https://streamlinehq.com</desc><path fill="#2e3120" d="M103.75049701789266 204.46520874751494c-7.852882703777337 0 -10.208747514910536 -4.885685884691849 -12.922465208747516 -14.249502982107357 -0.16948310139165013 -0.647117296222664 -0.20974155069582506 -1.3215705765407555 -0.11829025844930417 -1.9840954274353877 0.09095427435387674 -0.6625248508946322 0.3121272365805169 -1.3006958250497018 0.6500994035785289 -1.877733598409543 0.3553677932405567 -0.7251491053677933 0.9821073558648111 -1.2803180914512924 1.7445328031809144 -1.5457256461232605 3.280318091451292 -0.820079522862823 6.645129224652087 -0.8797216699801194 9.900596421471175 -0.9393638170974155 4.473161033797217 -0.07952286282306163 8.707753479125248 -0.1540755467196819 12.862823061630218 -1.9880715705765408 1.3777335984095427 -0.6863817097415508 2.706262425447316 -1.4671968190854872 3.9761431411530817 -2.3359840954274356 3.7972166998011927 -2.440357852882704 8.096421471172961 -5.203777335984096 11.973161033797217 -3.911530815109344 2.60934393638171 0.8697813121272366 4.0506958250497025 2.1421471172962225 4.289264413518887 3.782306163021869 0.5516898608349902 3.8021868787276345 -5.745526838966203 8.20079522862823 -9.910536779324056 11.113320079522863 -0.7405566600397615 0.4970178926441352 -1.3817097415506958 0.9642147117296223 -1.878727634194831 1.3369781312127236 -1.6346918489065607 1.3036779324055667 -3.1868787276341948 2.7077534791252487 -4.647117296222664 4.204771371769384 -3.5636182902584492 3.4791252485089466 -7.60934393638171 7.455268389662028 -12.365805168986084 8.12624254473161 -1.176938369781312 0.17345924453280318 -2.364314115308151 0.2629224652087475 -3.553677932405567 0.26838966202783304Zm-10.278330019880716 -18.210735586481114c-0.35785288270377735 0.18091451292246521 -0.6446322067594433 0.47664015904572565 -0.8151093439363817 0.8399602385685885 -0.47564612326043737 0.8180914512922465 -0.6148111332007953 1.7897614314115309 -0.38767395626242546 2.708747514910537 3.021868787276342 10.472166998011929 5.0894632206759445 14.304174950298211 14.85089463220676 12.922465208747516 4.274353876739562 -0.6063618290258449 7.952286282306163 -4.219681908548708 11.530815109343937 -7.713717693836978 1.5059642147117296 -1.5442345924453282 3.1078528827037775 -2.9915506958250497 4.796222664015905 -4.33399602385686 0.4970178926441352 -0.38767395626242546 1.1679920477137178 -0.8399602385685885 1.9184890656063618 -1.3667992047713717 3.3946322067594434 -2.3707753479125246 9.706759443339962 -6.784294234592446 9.289264413518888 -9.676938369781311 -0.1540755467196819 -1.0387673956262424 -1.257455268389662 -1.903578528827038 -3.285288270377734 -2.5795228628230618 -3.200795228628231 -1.0685884691848906 -7.181908548707753 1.4910536779324057 -10.695825049701789 3.7475149105367795 -1.3354870775347911 0.9155069582504971 -2.73558648111332 1.7326043737574555 -4.18986083499006 2.445328031809145 -4.433399602385686 1.9880715705765408 -9.010934393638172 2.0526838966202785 -13.41948310139165 2.1322067594433403 -3.190854870775348 0.03479125248508947 -6.476143141153082 0.1143141153081511 -9.59244532803181 0.874751491053678Z" stroke-width="0.497"></path><path fill="#2e3120" d="M235.9075546719682 106.92047713717695c-2.1441351888667994 -0.01242544731610338 -4.230119284294235 -0.6973161033797217 -5.964214711729623 -1.9582504970178927 -6.461232604373758 -4.557654075546719 -9.165009940357853 -15.55168986083499 -9.686878727634195 -20.73061630218688 -0.7206759443339961 -7.221669980119284 2.0576540755467194 -13.00695825049702 4.741550695825049 -18.593439363817097 1.4512922465208749 -3.021868787276342 2.9473161033797215 -6.143141153081511 3.906560636182903 -9.493041749502984 0.8051689860834991 -2.8131212723658052 0.8846918489065607 -6.411530815109344 0.9940357852882704 -10.218886679920478 0.20377733598409542 -8.797216699801194 0.437375745526839 -18.767395626242543 10.06958250497018 -21.978131212723657 2.137176938369781 -0.7157057654075547 2.9821073558648115 -0.29324055666003973 3.8220675944334 0.3230616302186879 0.10437375745526839 0.07455268389662027 0.20874751491053678 0.1540755467196819 0.3230616302186879 0.2286282306163022 0.04970178926441352 0.030367793240556662 0.0959244532803181 0.06530815109343936 0.13916500994035788 0.10437375745526839l0.9343936381709741 0.9542743538767395c0.033797216699801194 0.03116302186878728 0.06361829025844931 0.06620278330019881 0.08946322067594434 0.10437375745526839 1.227634194831014 1.8240556660039762 0.7007952286282306 5.437375745526839 0.08449304174950299 7.291252485089464 -2.594433399602386 7.778330019880716 -5.243538767395627 17.072763419483103 -5.243538767395627 27.013121272365808 0 4.731610337972167 2.1520874751491057 8.394632206759445 4.433399602385686 12.276341948310138 3.672962226640159 6.257455268389662 7.837972166998012 13.349900596421472 2.743538767395626 26.093439363817097 -1.7693836978131214 4.423459244532803 -4.736580516898608 7.271371769383698 -8.573558648111332 8.230616302186878 -0.9194831013916501 0.2326043737574553 -1.864314115308151 0.3513916500994036 -2.8131212723658052 0.352882703777336Zm5.899602385685885 -81.85904572564613c-0.48111332007952284 0.02837972166998012 -0.9552683896620279 0.1289264413518887 -1.4065606361829026 0.2982107355864811 -8.63817097415507 2.8827037773359843 -8.846918489065606 11.888667992047715 -9.050695825049702 20.601391650099405 -0.08946322067594434 3.9067594433399604 -0.17395626242544732 7.594632206759444 -1.0337972166998013 10.59662027833002 -0.9940357852882704 3.4791252485089466 -2.5198807157057654 6.65009940357853 -3.9761431411530817 9.721669980119284 -2.713717693836978 5.656063618290259 -5.278330019880715 10.994035785288272 -4.59741550695825 17.80318091451292 0.5765407554671969 5.745526838966203 3.4791252485089466 15.720675944333996 9.055666003976143 19.657057654075548 1.0725646123260437 0.7803180914512923 2.30765407554672 1.3101391650099405 3.6123260437375744 1.5492047713717694 1.305168986083499 0.23906560636182903 2.6476143141153083 0.18190854870775347 3.9274353876739565 -0.1674950298210736 4.239562624254473 -1.0586481113320079 6.461232604373758 -4.577534791252486 7.549701789264414 -7.3409542743538765 4.826043737574553 -12.062624254473162 1.0288270377733597 -18.52882703777336 -2.6441351888667994 -24.781312127236582 -2.2813121272365806 -3.881709741550696 -4.637176938369781 -7.892644135188868 -4.637176938369781 -13.031809145129225 0 -10.154075546719682 2.6888667992047717 -19.592644135188866 5.318091451292246 -27.485288270377737 0.5666003976143141 -1.694831013916501 0.9145129224652088 -4.66699801192843 0.12922465208747516 -5.929423459244533l-0.8250497017892644 -0.8399602385685885c-0.1143141153081511 -0.07455268389662027 -0.22365805168986086 -0.1540755467196819 -0.3330019880715706 -0.23359840954274352 -0.29970178926441354 -0.26734592445328037 -0.6868787276341948 -0.41585487077534794 -1.088469184890656 -0.41749502982107356Z" stroke-width="0.497"></path><path fill="#2e3120" d="M101.48409542743539 138.02385685884693c-0.31113320079522866 0.0009940357852882705 -0.6217693836978131 -0.02087475149105368 -0.9294234592445328 -0.06461232604373758 -2.3260437375745524 -0.3330019880715706 -3.9761431411530817 -1.8986083499005963 -4.89065606361829 -4.657057654075547 -0.9145129224652088 -2.7584493041749503 0.705765407554672 -5.40258449304175 2.2763419483101393 -7.952286282306163 0.9940357852882704 -1.6003976143141154 1.9135188866799206 -3.1163021868787277 2.1471172962226643 -4.527833001988071 2.0675944333996026 -12.42544731610338 -5.149105367793241 -20.52683896620278 -21.456262425447317 -24.15009940357853l-0.6759443339960239 -0.14910536779324055c-2.4155069582504973 -0.5318091451292247 -4.910536779324056 -1.0785288270377733 -7.062624254473162 -2.3210735586481115 -0.15457256461232605 -0.09045725646123261 -0.2967196819085487 -0.20079522862823063 -0.4224652087475149 -0.32803180914512925 -0.2842942345924453 -0.27435387673956263 -0.48111332007952284 -0.6272365805168987 -0.5641153081510935 -1.0139165009940359 -0.08300198807157058 -0.38618290258449306 -0.04920477137176939 -0.7887673956262425 0.09791252485089463 -1.1555666003976144 0.14662027833001987 -0.3667992047713718 0.3991053677932406 -0.6819085487077535 0.7256461232604374 -0.9045725646123262 0.32654075546719685 -0.22266401590457258 0.7122266401590458 -0.3429423459244533 1.1073558648111332 -0.34542743538767395 3.658051689860835 -0.09443339960238568 6.8041749502982105 -0.3628230616302187 9.582504970178928 -0.5964214711729622 9.189860834990059 -0.7703777335984096 15.825049701789265 -1.3270377733598409 29.860834990059644 4.910536779324056 9.294234592445328 4.130218687872764 12.42544731610338 11.476143141153083 9.831013916500995 23.121272365805172 -0.7967196819085487 3.627236580516899 -2.2629224652087476 7.074552683896621 -4.324055666003976 10.164015904572565 -2.0129224652087476 2.8976143141153083 -9.502982107355866 9.970178926441351 -15.303180914512923 9.970178926441351Zm-11.833996023856859 -47.15208747514911c-2.60934393638171 0 -5.203777335984096 0.2186878727634195 -8.101391650099405 0.46222664015904574 -2.798210735586481 0.23856858846918488 -5.964214711729623 0.4970178926441352 -9.671968190854871 0.6013916500994035 -0.10437375745526839 -0.0064612326043737576 -0.2077534791252485 0.019880715705765408 -0.2962226640159046 0.07554671968190856 -0.08797216699801193 0.055666003976143144 -0.15656063618290258 0.13767395626242546 -0.19582504970178927 0.2345924453280318 -0.03876739562624255 0.09642147117296224 -0.04622266401590457 0.20328031809145128 -0.021371769383697812 0.3046719681908549 0.02485089463220676 0.10139165009940358 0.08101391650099404 0.19234592445328033 0.1605367793240557 0.2599403578528827 0.03479125248508947 0.033797216699801194 0.07306163021868788 0.06361829025844931 0.1143141153081511 0.08946322067594434 1.9532803180914515 1.128230616302187 4.33399602385686 1.6500994035785288 6.635188866799205 2.1570576540755466l0.6809145129224653 0.14910536779324055c17.221669980119284 3.8270377733598413 24.85089463220676 12.524850894632207 22.604373757455267 25.844930417495032 -0.28330019880715707 1.6998011928429424 -1.3320079522862824 3.404572564612326 -2.345924453280318 5.059642147117296 -1.4612326043737576 2.3707753479125246 -2.837972166998012 4.612326043737575 -2.137176938369781 6.709741550695825 0.7355864811133201 2.2067594433399607 1.9433399602385688 3.399602385685885 3.6928429423459246 3.6530815109343937 4.940357852882704 0.7107355864811133 12.708747514910538 -6.277335984095428 14.791252485089464 -9.284294234592446 1.9428429423459244 -2.937375745526839 3.3305168986083498 -6.205268389662028 4.095427435387674 -9.642147117296222 2.440357852882704 -10.979125248508947 -0.32803180914512925 -17.594433399602387 -8.981113320079523 -21.436381709741553 -9.413518886679922 -4.174950298210736 -15.263419483101393 -5.238568588469184 -21.02385685884692 -5.238568588469184Z" stroke-width="0.497"></path><path fill="#2e3120" d="M79.55566600397614 5.792047713717695c-1.0636182902584495 1.794234592445328 -2.16699801192843 3.6530815109343937 -2.16699801192843 5.964214711729623 0 1.8141153081510935 0.7604373757455268 3.4393638170974157 1.4910536779324057 5.0149105367793245 0.6113320079522863 1.1557654075546722 1.0611332007952285 2.3899105367793245 1.3369781312127236 3.667992047713718 0.5715705765407555 3.4791252485089466 -1.4910536779324057 6.461232604373758 -3.2902584493041753 8.384691848906561 -5.497017892644136 5.790258449304176 -16.853876739562622 10.134194831013916 -24.30417495029821 9.29920477137177 -3.752485089463221 -0.4224652087475149 -6.222664015904573 -1.679920477137177 -7.549701789264414 -3.8369781312127236 -2.594433399602386 -4.209741550695825 -0.34791252485089463 -11.20775347912525 1.9582504970178927 -17.435387673956264 0.34791252485089463 -0.9343936381709741 0.6858846918489065 -1.9582504970178927 1.043737574552684 -3.0417495029821073 1.2475149105367793 -3.7624254473161036 2.659045725646123 -8.031809145129225 4.970178926441352 -10.397604373757455 0.2485089463220676 -0.2485089463220676 0.5467196819085488 -0.5367793240556661 0.8846918489065607 -0.8598409542743539 0.7107355864811133 -0.6908548707753479 1.5705765407554673 -1.5208747514910537 2.4204771371769387 -2.4453260437375746h-2.032803180914513c-0.4970178926441352 0.4970159045725646 -0.9940357852882704 0.9642127236580518 -1.39662027833002 1.3717673956262426 -0.3429423459244533 0.3330019880715706 -0.6510934393638171 0.6312127236580517 -0.9045725646123262 0.8846918489065607 -2.584493041749503 2.614304174950298 -4.055666003976143 7.057644135188867 -5.352882703777336 10.979115308151094 -0.352882703777336 1.0735586481113322 -0.6858846918489065 2.0825049701789267 -1.0238568588469186 2.9821073558648115 -2.430417495029821 6.565606361829026 -4.791252485089464 13.961232604373757 -1.8091451292246523 18.742544731610337 1.565606361829026 2.539761431411531 4.473161033797217 4.065606361829026 8.658051689860836 4.537773359840955 0.6784294234592445 0.07495029821073558 1.3603379721669981 0.11143141153081512 2.042743538767396 0.10934393638170975 7.743538767395626 0 18.215705765407556 -4.294234592445329 23.508946322067594 -9.865805168986084 2.937375745526839 -3.091451292246521 4.209741550695825 -6.426441351888668 3.6779324055666005 -9.647117296222664 -0.2967196819085487 -1.4139662027833002 -0.786779324055666 -2.7803180914512926 -1.4562624254473162 -4.060636182902584 -0.6958250497017893 -1.4910536779324057 -1.356858846918489 -2.8976143141153083 -1.356858846918489 -4.383697813121272 0 -1.903578528827038 0.9493041749502982 -3.4791252485089466 1.9582504970178927 -5.203777335984096 1.088469184890656 -1.8389562624254474 2.2912524850894633 -3.8816998011928434 2.201789264413519 -6.461220675944334h-1.4910536779324057c0.07455268389662027 2.157055666003976 -0.9642147117296223 3.8866779324055667 -2.0178926441351885 5.7007833001988075Z" stroke-width="0.497"></path><path fill="#2e3120" d="M25.5 5.876540755467198c1.7693836978131214 1.2922465208747516 4.095427435387674 1.5854870775347913 6.9085487077534795 0.874751491053678 2.3757455268389664 -0.6013916500994035 5.029821073558648 -3.3101292246520875 8.041749502982107 -6.645117793240557h-2.0228628230616303c-2.4105367793240555 2.6192828031809148 -4.637176938369781 4.756459741550696 -6.381709741550696 5.198795725646123 -2.4005964214711732 0.6063618290258449 -4.249502982107356 0.3976143141153082 -5.666003976143141 -0.6312027833001989 -1.312127236580517 -0.9642147117296223 -2.16699801192843 -2.5795228628230618 -2.748508946322068 -4.567592942345924h-1.565606361829026c0.6560636182902585 2.4353861829025845 1.6998011928429424 4.502980616302187 3.4343936381709743 5.770366302186879Z" stroke-width="0.497"></path><path fill="#2e3120" d="M94.5258449304175 11.075347912524851c-0.4572564612326044 3.0318091451292246 -1.172962226640159 6.958250497017893 -2.673956262425447 10.43737574552684 -2.600894632206759 5.891252485089463 -5.9791252485089466 11.407504970178927 -10.044731610337973 16.40159045725646 -1.9880715705765408 2.440357852882704 -4.736580516898608 4.572564612326044 -7.410536779324056 6.640159045725646 -0.7306163021868788 0.5616302186878728 -1.4463220675944335 1.113320079522863 -2.127236580516899 1.6650099403578529 -2.4155069582504973 1.9578528827037773 -5.188866799204772 3.426540755467197 -8.166003976143141 4.324254473161034 -16.297216699801194 4.92544731610338 -23.78727634194831 -8.260636182902585 -31.02882703777336 -21.014115308151094 -5.541749502982108 -9.751491053677933 -10.77534791252485 -18.986083499005968 -19.652087475149106 -20.07455268389662 -4.473161033797217 -0.5566600397614315 -8.91151093439364 -0.03479125248508947 -13.330002485089464 0.9443339960238568v1.5308151093439364c4.388670477137177 -0.9940357852882704 8.79719930417495 -1.540755467196819 13.146105864811133 -0.9940357852882704 8.136182902584494 0.9940357852882704 13.190854870775349 9.910536779324056 18.53876739562624 19.329025844930417 6.138170974155069 10.810139165009941 12.97713717693837 22.86302186878728 25.73061630218688 22.86302186878728 2.3876739562624256 -0.023856858846918492 4.758449304174951 -0.3976143141153082 7.037773359840955 -1.1083499005964215 3.1610337972167 -0.9493041749502982 6.105864811133201 -2.5075049701789265 8.66799204771372 -4.587673956262425 0.6759443339960239 -0.5417495029821074 1.3866799204771372 -1.088469184890656 2.1073558648111335 -1.6500994035785288 2.743538767395626 -2.1172962226640157 5.576540755467198 -4.304174950298211 7.6590457256461235 -6.878727634194831 4.15258449304175 -5.110387673956263 7.602882703777336 -10.753578528827038 10.25844930417495 -16.779324055666002 1.5705765407554673 -3.658051689860835 2.3061630218687874 -7.708747514910537 2.7733598409542743 -10.830019880715705 0.6307157057654075 -3.6995029821073557 0.6709741550695826 -7.475710735586482 0.11928429423459244 -11.187861332007952h-1.4910536779324057c0.5268389662027834 3.0467181908548713 0.5467196819085488 6.640147614314116 -0.1143141153081511 10.969173459244534Z" stroke-width="0.497"></path><path fill="#2e3120" d="M248.6013916500994 157.16401590457258c-1.8553677932405568 -0.14165009940357853 -3.7181908548707754 -0.16451292246520877 -5.576540755467198 -0.06958250497017894 -10.019880715705765 0.5914512922465208 -19.01590457256461 5.467196819085487 -27.71868787276342 10.159045725646124 -6.282306163021869 3.3946322067594434 -12.783300198807156 6.9085487077534795 -19.537773359840955 8.707753479125248 -16.645129224652088 4.443339960238569 -29.985089463220675 -0.7703777335984096 -38.56858846918489 -15.079522862823062 -2.7286282306163026 -4.542743538767396 -4.6222664015904575 -8.12624254473161 -4.179920477137177 -12.967196819085487 0.6312127236580517 -6.958250497017893 3.1610337972167 -12.922465208747516 5.8399602385685885 -19.209741550695824 1.3320079522862824 -3.131212723658052 2.708747514910537 -6.3717693836978135 3.832007952286282 -9.746520874751491 1.5457256461232605 -4.642147117296223 1.7793240556660042 -9.090457256461233 2.0278330019880717 -13.802186878727634 0.07952286282306163 -1.4910536779324057 0.15904572564612326 -3.081510934393638 0.29324055666003973 -4.642147117296223 0.2286282306163022 -2.788270377733599 1.113320079522863 -5.611332007952286 1.9880715705765408 -8.339960238568588 0.7082504970178927 -2.107852882703777 1.285785288270378 -4.257455268389663 1.7296222664015906 -6.436381709741551 1.3667992047713717 -7.504970178926442 -2.39065606361829 -20.825049701789265 -7.5894632206759445 -26.883697813121277 -6.560636182902584 -7.6590457256461235 -16.06361829025845 -10.964413518886682 -28.24055666003976 -9.82624254473161 -12.375745526838966 1.1582504970178926 -23.618290258449306 6.5459244532803185 -29.219681908548708 9.657256461232604 -8.325049701789265 4.627236580516899 -23.061630218687874 11.43141153081511 -28.175944333996025 5.039761431411531 -0.31262425447316106 -0.3812127236580517 -0.540258449304175 -0.8240556660039762 -0.668986083499006 -1.2992047713717694 -0.12872763419483102 -0.47564612326043737 -0.15457256461232605 -0.9731610337972167 -0.07654075546719682 -1.459244532803181 0.43240556660039764 -3.429423459244533 4.716699801192843 -7.455268389662028 7.176938369781312 -9.314115308151093 1.9184890656063618 -1.4363817097415508 3.9761431411530817 -2.867992047713718 5.964214711729623 -4.249701789264414 9.721669980119284 -6.749502982107356 19.7713717693837 -13.732604373757455 21.73459244532803 -26.496023856858848 1.227634194831014 -7.992047713717693 0.37276341948310143 -14.324055666003977 -2.1073558648111335 -20.78030616302187h-1.6103379721669981c2.554671968190855 6.426429423459244 3.4791252485089466 12.664003976143142 2.2415506958250497 20.551677932405568 -1.8836978131212725 12.112326043737575 -11.645129224652088 18.906560636182903 -21.128230616302186 25.482107355864812 -1.9880715705765408 1.3866799204771372 -4.070576540755467 2.8280318091451293 -6.008946322067595 4.279522862823062 -0.7306163021868788 0.5516898608349902 -7.147117296222665 5.467196819085487 -7.763419483101392 10.318091451292247 -0.10238568588469185 0.6843936381709742 -0.0606361829025845 1.3827037773359843 0.12226640159045726 2.050695825049702 0.1833996023856859 0.6674950298210736 0.5039761431411531 1.2892644135188867 0.941351888667992 1.8260437375745526 2.7335984095427435 3.4194831013916502 7.857852882703778 4.0506958250497025 15.238568588469185 1.8737574552683898 4.329025844930418 -1.2773359840954275 9.314115308151093 -3.4791252485089466 14.826043737574553 -6.54075546719682s16.525844930417495 -8.34493041749503 28.63320079522863 -9.473161033797217c11.665009940357853 -1.0936381709741552 20.74055666003976 2.042743538767396 26.97316103379722 9.309145129224653 4.8707753479125255 5.680914512922465 8.528827037773361 18.628230616302186 7.251491053677933 25.646123260437378 -0.43439363817097415 2.11779324055666 -0.9970178926441351 4.207256461232604 -1.6848906560636183 6.257455268389662 -0.8797216699801194 2.8081510934393643 -1.7892644135188869 5.710735586481114 -2.032803180914513 8.663021868787277 -0.13419483101391652 1.5854870775347913 -0.2186878727634195 3.1660039761431413 -0.2982107355864811 4.691848906560636 -0.23856858846918488 4.607355864811133 -0.46719681908548705 8.946322067594433 -1.9532803180914515 13.41948310139165 -1.1033797216699803 3.3151093439363817 -2.485089463220676 6.525844930417495 -3.7872763419483104 9.6272365805169 -2.6043737574552686 6.133200795228628 -5.3031809145129225 12.475149105367795 -5.964214711729623 19.66202783300199 -0.4970178926441352 5.278330019880715 1.6053677932405568 9.239562624254473 4.383697813121272 13.866799204771372 6.893638170974155 11.486083499005964 16.704771371769382 17.360834990059644 28.762425447316105 17.360834990059644 3.877236580516899 -0.03230616302186879 7.734095427435388 -0.5720675944333996 11.471172962226639 -1.6053677932405568 6.928429423459245 -1.8439363817097416 13.503976143141154 -5.40258449304175 19.880715705765407 -8.836978131212724 8.558648111332008 -4.627236580516899 17.395626242544733 -9.413518886679922 27.097415506958253 -9.980119284294235 1.8220675944333997 -0.09393638170974156 3.6481113320079523 -0.07107355864811132 5.467196819085487 0.06958250497017894l0.014910536779324055 -1.481113320079523Z" stroke-width="0.497"></path><path fill="#2e3120" d="M248.6013916500994 132.47216699801194c-7.826540755467197 2.618290258449304 -15.410039761431412 5.914512922465209 -22.664015904572565 9.85089463220676 -2.5740556660039764 1.4478131212723657 -5.048210735586482 3.066600397614314 -7.405566600397615 4.845924453280318 -2.5497017892644136 1.833996023856859 -5.18389662027833 3.7326043737574555 -7.997017892644135 5.139165009940358 -8.916500994035786 4.473161033797217 -25.089463220675945 4.473161033797217 -32.57455268389663 -2.176938369781312 -10.178926441351889 -9.050695825049702 -7.211729622266402 -20.17892644135189 -4.343936381709741 -30.944333996023857 1.0934393638170976 -4.095427435387674 2.927435387673956 -9.189860834990059 4.8757455268389664 -14.58747514910537 6.689860834990061 -18.568588469184892 15.019880715705765 -41.67992047713718 5.874751491053678 -55.39781312127237 -10.183896620278329 -15.273359840954274 -32.634194831013914 -14.443339960238568 -50.24850894632207 -8.573558648111332 -1.4015904572564613 0.46719681908548705 -3.1411530815109345 1.2524850894632207 -4.970178926441352 2.087475149105368 -5.690854870775348 2.569582504970179 -13.469184890656065 6.098409542743539 -17.763419483101394 2.877733598409543 -1.2872763419483102 -0.9642147117296223 -1.9880715705765408 -1.9880715705765408 -2.1471172962226643 -3.091451292246521 -0.3081510934393638 -2.1968190854870775 1.525844930417495 -4.6222664015904575 3.2952286282306162 -6.958250497017893 0.6958250497017893 -0.9145129224652088 1.3518886679920479 -1.7842942345924453 1.8936381709741552 -2.6540755467196817 0.7256461232604374 -1.158051689860835 1.4910536779324057 -2.3260437375745524 2.286282306163022 -3.5636182902584492 5.094433399602386 -7.867793240556661 10.874751491053678 -16.779324055666002 9.816103379721671 -26.341938369781314 -0.11133200795228629 -0.9717147117296223 -0.2957256461232604 -1.9336729622266404 -0.5516898608349902 -2.8777321073558646h-1.5457256461232605c0.2897614314115308 0.9983881709741552 0.4960238568588469 2.019133697813121 0.6163021868787276 3.051688369781312 0.9940357852882704 9.015894632206761 -4.627236580516899 17.68885685884692 -9.587475149105368 25.347902584493042 -0.8051689860834991 1.242544731610338 -1.565606361829026 2.4155069582504973 -2.2962226640159047 3.5834990059642147 -0.4970178926441352 0.8151093439363817 -1.1481113320079523 1.6550695825049704 -1.819085487077535 2.5497017892644136 -1.9582504970178927 2.584493041749503 -3.9761431411530817 5.258449304174951 -3.5834990059642147 8.071570576540754 0.21371769383697814 1.4910536779324057 1.1332007952286283 2.877733598409543 2.7286282306163026 4.075546719681908 4.970178926441352 3.7477137176938373 12.922465208747516 0.16401590457256462 19.26441351888668 -2.713717693836978 1.8041749502982107 -0.8151093439363817 3.503976143141153 -1.5854870775347913 4.831013916500995 -2.0278330019880717 17.09244532803181 -5.6958250497017895 38.8220675944334 -6.5904572564612325 48.538767395626245 7.98727634194831 8.727634194831014 13.091451292246521 0.5417495029821074 35.81013916500994 -6.038767395626243 54.060636182902584 -1.9532803180914515 5.427435387673956 -3.8021868787276345 10.55666003976143 -4.910536779324056 14.711729622266402 -2.9821073558648115 11.197813121272366 -6.073558648111333 22.783300198807158 4.796222664015905 32.440357852882705 3.7773359840954273 3.359840954274354 9.751491053677933 5.362823061630219 16.809145129224653 5.641153081510934 0.5467196819085488 0 1.0934393638170976 0.03479125248508947 1.640159045725646 0.03479125248508947 5.815109343936381 0 11.610337972166999 -1.197813121272366 15.780318091451292 -3.280318091451292 2.922465208747515 -1.4612326043737576 5.606361829025845 -3.3946322067594434 8.20079522862823 -5.263419483101392 2.305168986083499 -1.7380715705765408 4.722664015904573 -3.3220675944334 7.236580516898609 -4.741550695825049 7.037276341948311 -3.8121272365805168 14.384194831013916 -7.021371769383698 21.963220675944335 -9.59244532803181v-1.5705765407554673Z" stroke-width="0.497"></path><path fill="#2e3120" d="M248.6013916500994 0.1061744532803181h-0.11928429423459244c0 1.988070079522863 -1.1232604373757455 3.92643986083499 -3.3051689860834994 5.834978628230616 -9.995029821073558 8.727634194831014 -23.508946322067594 7.256461232604374 -36.590457256461235 5.830019880715706 -6.386679920477137 -0.6958250497017893 -12.987077534791252 -1.4165009940357853 -18.946322067594433 -0.874751491053678 -5.2335984095427435 0.4970178926441352 -9.711729622266402 2.9025844930417497 -14.045725646123262 5.243538767395627 -4.33399602385686 2.340954274353877 -8.325049701789265 4.507952286282307 -13.091451292246521 5.03479125248509 -6.227634194831014 0.6958250497017893 -12.922465208747516 0.16401590457256462 -17.892644135188867 -1.411530815109344 -6.784294234592446 -2.1520874751491057 -10.576540755467198 -6.068588469184891 -11.272365805168986 -11.645129224652088 -0.33797216699801197 -2.6888667992047717 0.17892644135188868 -5.298200795228628 0.8250497017892644 -8.011916998011928h-1.5308151093439364c-0.621272365805169 2.6590442345924457 -1.128230616302187 5.387662524850895 -0.7753479125248509 8.200783797216701 1.4363817097415508 11.585487077534792 14.627236580516898 14.66202783300199 25.109343936381713 14.66202783300199 1.904572564612326 0 3.8076540755467194 -0.10288270377733598 5.700795228628231 -0.3081510934393638 5.054671968190855 -0.5616302186878728 9.418489065606362 -2.922465208747515 13.63817097415507 -5.208747514910537 4.393638170974155 -2.3757455268389664 8.543737574552685 -4.6222664015904575 13.469184890656065 -5.069582504970179 5.81013916500994 -0.5268389662027834 12.047713717693837 0.14910536779324055 18.648111332007954 0.8697813121272366 13.41948310139165 1.4612326043737576 27.266401590457257 2.9821073558648115 37.73856858846919 -6.1928429423459255 0.9333996023856859 -0.7949801192842942 1.7539761431411531 -1.7129224652087476 2.440357852882704 -2.7286182902584493l0 -4.224650596421472Z" stroke-width="0.497"></path><path fill="#2e3120" d="M184.91351888667992 0.1061744532803181c-0.874751491053678 0.2882703777335984 -1.7743538767395626 0.5864796222664016 -2.698807157057654 0.9045710735586482 -7.708747514910537 2.6043737574552686 -16.446322067594437 5.56162027833002 -23.359840954274354 1.4214711729622267 -1.0278330019880717 -0.5832902584493043 -1.921968190854871 -1.3757057654075548 -2.624254473161034 -2.326042246520875h-1.7793240556660042c0.8543737574552684 1.5221207753479127 2.120775347912525 2.772687375745527 3.6530815109343937 3.6083484095427436 2.6595427435387675 1.5550596421471172 5.6973161033797215 2.344572564612326 8.777335984095428 2.2813021868787278 5.248508946322068 0 10.740556660039761 -1.8588369781312128 15.81013916500994 -3.5735487077534795 1.595427435387674 -0.5417495029821074 3.106361829025845 -1.0536779324055667 4.557654075546719 -1.4910536779324057 1.239065606361829 -0.3596471172962227 2.5009940357852884 -0.635289264413519 3.7773359840954273 -0.8250482107355864h-6.113320079522864Z" stroke-width="0.497"></path><path fill="#2e3120" d="M248.6013916500994 35.89145129224652c-0.05964214711729622 0.1988071570576541 -0.12922465208747516 0.40258449304174954 -0.18886679920477137 0.6063618290258449 -1.878727634194831 6.580516898608351 -1.595427435387674 13.916699801192843 0.18886679920477137 21.188071570576543V35.89145129224652Z" stroke-width="0.497"></path><path fill="#2e3120" d="m248.6013916500994 125.45427435387674 -0.7654075546719682 0.20377733598409542c-3.4791252485089466 0.9542743538767395 -6.610337972166999 2.7783300198807157 -9.617296222664017 4.537773359840955 -1.4910536779324057 0.8598409542743539 -2.9821073558648115 1.7544731610337971 -4.532803180914513 2.5198807157057654 -8.886679920477137 4.443339960238569 -29.666998011928428 9.786282306163022 -37.44532803180915 1.9880715705765408 -17.768389662027833 -17.74850894632207 -6.724652087475149 -45.34791252485089 1.3369781312127236 -65.51192842942346 0.5815109343936381 -1.4910536779324057 1.3220675944333997 -2.917495029821074 2.102385685884692 -4.473161033797217 1.540755467196819 -3.0367793240556664 3.131212723658052 -6.1779324055666 3.548707753479125 -9.507952286282306 0.7554671968190855 -6.043936381709742 -4.179920477137177 -9.443538767395626 -8.533797216699803 -12.47037773359841 -5.03479125248509 -3.4791252485089466 -9.383697813121271 -6.461232604373758 -6.252485089463221 -12.748508946322067 0.8300198807157058 -1.6650099403578529 2.1421471172962225 -3.230616302186879 3.414512922465209 -4.751491053677933 0.3976143141153082 -0.4970178926441352 0.7952286282306164 -0.9493041749502982 1.172962226640159 -1.4214711729622267 1.8588469184890657 -2.3260437375745524 5.288270377733599 -1.8041749502982107 8.31013916500994 -1.3469184890656063 0.5268389662027834 0.07952286282306163 1.0337972166998013 0.15904572564612326 1.5208747514910537 0.2186878727634195 6.61530815109344 0.8300198807157058 22.112326043737575 3.782306163021869 23.175944333996025 13.354870775347914 0.7852882703777336 7.042743538767396 -2.524850894632207 12.20675944333996 -6.023856858846918 17.669184890656066 -1.4304174950298212 2.1550695825049706 -2.747514910536779 4.382703777335984 -3.946322067594434 6.674950298210736 -1.113320079522863 2.2514910536779325 -2.201789264413519 4.329025844930418 -3.2504970178926444 6.317097415506959 -6.993041749502982 13.225646123260438 -11.610337972166999 21.963220675944335 -1.8588469184890657 39.02584493041749 2.3210735586481115 4.065606361829026 7.31610337972167 11.21272365805169 14.676938369781313 13.41948310139165 6.063618290258449 1.819085487077535 14.577534791252484 0.7554671968190855 22.97216699801193 -2.485089463220676v-1.640159045725646c-8.265407554671969 3.285288270377734 -16.744532803180913 4.443339960238569 -22.544731610337973 2.7037773359840958 -6.863817097415508 -2.0576540755467194 -11.600397614314115 -8.86182902584493 -13.812127236580517 -12.733598409542745 -9.343936381709742 -16.351888667992046 -5.119284294234593 -24.353876739562626 1.8836978131212725 -37.589463220675945 1.0586481113320079 -1.9880715705765408 2.1520874751491057 -4.075546719681908 3.275347912524851 -6.317097415506959 1.168986083499006 -2.2485089463220675 2.456262425447316 -4.43389662027833 3.856858846918489 -6.545725646123261 3.4791252485089466 -5.467395626242546 7.087475149105368 -11.07375745526839 6.24751491053678 -18.63836978131213 -1.1779324055666005 -10.62624254473161 -17.504970178926442 -13.797216699801194 -24.468190854870773 -14.666998011928431 -0.4970178926441352 -0.05964214711729622 -0.9940357852882704 -0.13916500994035788 -1.4910536779324057 -0.21371769383697814 -3.2504970178926444 -0.4970178926441352 -7.301192842942346 -1.113320079522863 -9.701789264413518 1.8886679920477136 -0.3677932405566601 0.46222664015904574 -0.7554671968190855 0.9244532803180915 -1.1481113320079523 1.39662027833002 -1.3916500994035785 1.5351888667992049 -2.600894632206759 3.2263916500994037 -3.60337972166998 5.039761431411531 -3.71272365805169 7.420477137176938 1.6003976143141154 11.093439363817097 6.734592445328032 14.642147117296224 4.393638170974155 3.0417495029821073 8.548707753479125 5.909741550695825 7.90258449304175 11.058846918489065 -0.3827037773359841 3.0715705765407555 -1.9135188866799206 6.093439363817097 -3.399602385685885 9.015904572564613 -0.7604373757455268 1.4910536779324057 -1.5457256461232605 3.056660039761432 -2.1570576540755466 4.577534791252486 -8.215705765407556 20.541749502982107 -19.468190854870777 48.66799204771372 -0.9940357852882704 67.13220675944333 3.200795228628231 3.205765407554672 8.260437375745528 4.408548707753479 13.82703777335984 4.408548707753479 9.055666003976143 0 19.448310139165013 -3.190854870775348 25.347912524850894 -6.133200795228628 1.58051689860835 -0.790258449304175 3.1262425447316105 -1.694831013916501 4.617296222664016 -2.569582504970179 2.922465208747515 -1.7147117296222665 5.964214711729623 -3.4791252485089466 9.259443339960239 -4.383697813121272l0.37276341948310143 -0.10437375745526839 -0.009940357852882704 -1.540755467196819Z" stroke-width="0.497"></path><path fill="#2e3120" d="M248.6013916500994 232.26838966202786c-1.9184890656063618 0.4224652087475149 -3.832007952286282 0.8300198807157058 -5.715705765407555 1.227634194831014 -8.97117296222664 1.903578528827038 -17.440357852882705 3.7027833001988073 -23.11133200795229 6.54075546719682 -4.253976143141153 2.1237574552683895 -8.067594433399602 5.034294234592445 -11.237574552683897 8.578528827037774h2.0576540755467194c2.84493041749503 -2.9592445328031807 6.174950298210735 -5.4100397614314115 9.845924453280318 -7.246520874751491 5.501988071570577 -2.748508946322068 13.881709741550695 -4.527833001988071 22.75347912524851 -6.411530815109344 1.7842942345924453 -0.37773359840954274 3.593439363817098 -0.7654075546719682 5.4075546719681915 -1.1630218687872762v-1.525844930417495Z" stroke-width="0.497"></path><path fill="#2e3120" d="M153.25844930417495 243.2972166998012c-1.7147117296222665 -8.56858846918489 -10.298210735586482 -11.028827037773361 -17.892644135188867 -13.19582504970179 -5.685884691848907 -1.6302186878727634 -11.058648111332008 -3.1660039761431413 -12.46023856858847 -6.988071570576541 -1.1630218687872762 -3.156063618290258 0.35785288270377735 -7.823061630218688 4.652087475149105 -14.26441351888668 1.9637176938369783 -3.0273359840954277 4.712226640159046 -5.464711729622266 7.952286282306163 -7.0526838966202785 4.254473161033798 -2.127236580516899 8.021868787276343 -5.278330019880715 11.510934393638172 -9.637176938369782 1.0934393638170976 -1.3618290258449306 1.863817097415507 -3.091451292246521 2.60934393638171 -4.761431411530816 1.7743538767395626 -3.9761431411530817 3.4791252485089466 -7.773359840954275 9.3389662027833 -7.773359840954275 0.8807157057654076 0.004970178926441352 1.7599403578528827 0.07852882703777336 2.6292246520874754 0.2186878727634195 4.473161033797217 0.6858846918489065 6.79920477137177 2.8131212723658052 9.26938369781312 5.064612326043737 3.752485089463221 3.4244532803180916 7.634194831013916 6.958250497017893 18.921471172962228 5.084493041749504 11.510934393638172 -1.9184890656063618 23.85685884691849 -7.42544731610338 34.791252485089466 -12.281312127236582l1.9284294234592445 -0.8598409542743539c2.298707753479125 -1.0780318091451293 4.532803180914513 -2.289761431411531 6.689860834990061 -3.628230616302187 3.5735586481113324 -2.122266401590457 7.271371769383698 -4.324055666003976 11.43141153081511 -5.149105367793241 1.3369781312127236 -0.26838966202783304 2.673956262425447 -0.46719681908548705 3.9761431411530817 -0.6013916500994035v-1.4910536779324057c-1.4214711729622267 0.1441351888667992 -2.852882703777336 0.352882703777336 -4.289264413518887 0.6411530815109344 -4.393638170974155 0.874751491053678 -8.20079522862823 3.1411530815109345 -11.883697813121273 5.32803180914513 -2.1073558648111335 1.309642147117296 -4.289761431411531 2.4945328031809146 -6.535785288270378 3.548707753479125l-1.933399602385686 0.8598409542743539c-10.820079522862823 4.821073558648111 -23.09145129224652 10.288270377733598 -34.418489065606366 12.171968190854871 -10.561630218687872 1.7644135188866799 -14.015904572564612 -1.3817097415506958 -17.668986083499004 -4.716699801192843 -2.524850894632207 -2.301192842942346 -5.134194831013917 -4.676938369781312 -10.044731610337973 -5.437375745526839 -9.174950298210737 -1.4165009940357853 -11.50596421471173 3.8121272365805168 -13.558648111332008 8.424453280318092 -0.6182902584493042 1.572564612326044 -1.4279324055666005 3.0631212723658052 -2.4105367793240555 4.438369781312128 -3.3548707753479126 4.184890656063619 -6.958250497017893 7.20675944333996 -11.013916500994036 9.234592445328031 -3.4617296222664016 1.7102385685884691 -6.401590457256462 4.317097415506958 -8.513916500994036 7.549701789264414 -4.642147117296223 6.958250497017893 -6.172962226640159 11.928429423459246 -4.81610337972167 15.606361829025845 1.6650099403578529 4.527833001988071 7.39065606361829 6.167992047713718 13.449304174950298 7.90258449304175 7.514910536779324 2.1520874751491057 15.2882703777336 4.378727634194831 16.82405566600398 12.05765407554672 0.3300198807157058 1.6585487077534793 0.5511928429423459 3.336978131212724 0.6610337972166999 5.024850894632206h1.4910536779324057c-0.11182902584493043 -1.7857852882703777 -0.34095427435387676 -3.5626242544731612 -0.6858846918489065 -5.318091451292246Z" stroke-width="0.497"></path><path fill="#2e3120" d="M248.6013916500994 218.88866799204771c-1.5556660039761432 0.6610337972166999 -3.091451292246521 1.3270377733598409 -4.602385685884692 1.9880715705765408 -9.652087475149106 4.18986083499006 -18.767395626242543 8.146123260437376 -29.507952286282308 10.298210735586482 -5.740556660039762 1.1481113320079523 -12.42544731610338 2.286282306163022 -13.538767395626243 2.176938369781312 -3.7773359840954273 -2.60934393638171 -8.946322067594433 -11.600397614314115 -9.940357852882704 -15.631212723658052 -2.1421471172962225 -8.56361829025845 6.093439363817097 -14.577534791252484 12.713717693836978 -19.40854870775348 1.1182902584493042 -0.820079522862823 2.176938369781312 -1.5904572564612327 3.1510934393638173 -2.3508946322067596 3.672962226640159 -2.852882703777336 7.544731610337973 -3.3399602385685885 11.645129224652088 -3.856858846918489 2.5830019880715707 -0.2415506958250497 5.135685884691849 -0.7410536779324056 7.619284294234593 -1.4910536779324057 3.0949304174950303 -1.1242544731610338 6.111829025844931 -2.4522862823061633 9.030815109343937 -3.9761431411530817 3.60337972166998 -1.7793240556660042 7.326043737574553 -3.6182902584493046 11.003976143141154 -4.537773359840955 0.790258449304175 -0.1988071570576541 1.6053677932405568 -0.34791252485089463 2.430417495029821 -0.4721669980119284v-1.4910536779324057c-0.9398608349900597 0.13021868787276342 -1.8722664015904573 0.3096421471172962 -2.79324055666004 0.5367793240556661 -3.832007952286282 0.9592445328031809 -7.629224652087475 2.8330019880715707 -11.302186878727634 4.647117296222664 -2.8578528827037775 1.4915506958250497 -5.811630218687873 2.7917495029821073 -8.841948310139164 3.8916500994035785 -2.3916500994035785 0.7216699801192843 -4.848906560636183 1.202783300198807 -7.335984095427436 1.4363817097415508 -4.120278330019881 0.521868787276342 -8.37475149105368 1.0586481113320079 -12.370775347912526 4.165009940357853 -0.9542743538767395 0.7405566600397615 -1.9880715705765408 1.4910536779324057 -3.1163021868787277 2.3210735586481115 -6.958250497017893 5.094433399602386 -15.666003976143141 11.43141153081511 -13.280318091451292 20.97415506958251 1.0934393638170976 4.383697813121272 6.416500994035785 13.742544731610337 10.65606361829026 16.570576540755468 0.08946322067594434 0.05964214711729622 0.23359840954274352 0.1540755467196819 0.9045725646123262 0.1540755467196819 1.3170974155069584 0 4.681908548707754 -0.37773359840954274 13.658051689860836 -2.1719681908548707 10.899602385685885 -2.1819085487077534 20.084493041749504 -6.167992047713718 29.821073558648113 -10.392644135188867l4.010934393638172 -1.7296222664015906 -0.014910536779324055 -1.6500994035785288Z" stroke-width="0.497"></path><path fill="#2e3120" d="M248.6013916500994 208.25248508946325c-1.8041749502982107 0.6908548707753479 -3.588469184890656 1.4065606361829026 -5.357852882703777 2.112326043737575 -7.39065606361829 2.9821073558648115 -15.039761431411533 6.038767395626243 -23.151093439363816 6.774353876739563 -5.541749502982108 0.4970178926441352 -8.876739562624255 -0.14910536779324055 -9.155069582504971 -1.7892644135188869 -0.5914512922465208 -3.4791252485089466 9.905566600397615 -11.32703777335984 16.09840954274354 -12.877733598409543 5.924453280318092 -1.4910536779324057 12.211729622266402 -3.1709741550695827 18.056660039761432 -5.506958250497018 0.8797216699801194 -0.352882703777336 2.087475149105368 -0.790258449304175 3.5089463220675943 -1.2723658051689861v-1.5556660039761432c-1.8389662027833003 0.6113320079522863 -3.280318091451292 1.128230616302187 -4.060636182902584 1.4413518886679921 -5.7654075546719685 2.3061630218687874 -11.993041749502982 3.9761431411530817 -17.86779324055666 5.467196819085487 -5.874751491053678 1.4910536779324057 -18.036779324055665 9.66699801192843 -17.20178926441352 14.572564612326044 0.4522862823061631 2.6789264413518885 4.100397614314115 3.2206759443339963 7.181908548707753 3.2206759443339963 1.4512922465208749 0 2.7733598409542743 -0.11928429423459244 3.5735586481113324 -0.19383697813121273 8.330019880715707 -0.7554671968190855 16.078528827037776 -3.866799204771372 23.573558648111334 -6.8737574552683895 1.5854870775347913 -0.6361829025844931 3.1858846918489068 -1.2773359840954275 4.8011928429423465 -1.903578528827038v-1.6153081510934395Z" stroke-width="0.497"></path><path fill="#2e3120" d="M231.7872763419483 248.61530815109344h-0.08449304174950299c-0.7872763419483102 -0.18638170974155072 -1.6078528827037772 -0.1779324055666004 -2.39065606361829 0.02485089463220676l2.4751491053677936 -0.02485089463220676Z" stroke-width="0.497"></path><path fill="#2e3120" d="M248.6013916500994 244.3111332007952c-1.6416500994035785 0.970178926441352 -2.930417495029821 2.4398608349900597 -3.6779324055666005 4.194831013916501 -0.013916500994035786 0.0352882703777336 -0.025347912524850896 0.0720675944333996 -0.03479125248508947 0.10934393638170975h1.6202783300198806c0.5009940357852883 -0.9761431411530815 1.216202783300199 -1.8255467196819086 2.0924453280318094 -2.485089463220676v-1.819085487077535Z" stroke-width="0.497"></path><path fill="#2e3120" d="M186.57355864811134 229.16699801192843c-3.881709741550696 -2.9075546719681906 -6.287276341948311 -5.740556660039762 -8.3051689860835 -9.78131212723658 -1.7594433399602387 -3.5188866799204774 -2.6938369781312126 -7.271371769383698 -3.598409542743539 -10.899602385685885 -1.1530815109343937 -4.642147117296223 -2.3508946322067596 -9.44333996023857 -5.278330019880715 -13.836978131212724 -1.2226640159045725 -1.833996023856859 -3.1411530815109345 -2.892644135188867 -5.705765407554672 -3.1510934393638173 -4.647117296222664 -0.4572564612326044 -9.801192842942346 1.8737574552683898 -10.6610337972167 2.7335984095427435 -1.6003976143141154 1.6003976143141154 -3.091451292246521 2.9075546719681906 -4.408548707753479 4.060636182902584 -3.89662027833002 3.4194831013916502 -6.709741550695825 5.889662027833002 -8.265407554671969 12.112326043737575 -1.2226640159045725 4.880715705765408 4.731610337972167 8.37475149105368 11.033797216699801 12.072564612326044 5.397614314115308 3.1709741550695827 10.979125248508947 6.461232604373758 11.784294234592446 10.477137176938369 0.44234592445328036 2.0675944333996026 -0.054671968190854875 6.714711729622267 -0.5516898608349902 12.072564612326044 -0.1143141153081511 1.158051689860835 -0.23359840954274352 2.3608349900596424 -0.34791252485089463 3.588469184890656h1.4910536779324057c0.10934393638170975 -1.1779324055666005 0.22365805168986086 -2.331013916500994 0.3330019880715706 -3.444333996023857 0.5616302186878728 -5.710735586481114 0.9940357852882704 -10.223658051689862 0.5516898608349902 -12.509940357852884 -0.9393638170974155 -4.686878727634195 -6.814115308151094 -8.131212723658052 -12.49502982107356 -11.471172962226639 -5.81013916500994 -3.404572564612326 -11.292246520874752 -6.6252485089463224 -10.342942345924452 -10.43737574552684 1.4413518886679921 -5.770377733598409 3.9761431411530817 -7.992047713717693 7.8031809145129225 -11.351888667992048 1.3320079522862824 -1.1679920477137178 2.8429423459244534 -2.485089463220676 4.473161033797217 -4.130218687872764 0.5566600397614315 -0.5566600397614315 4.59741550695825 -2.3508946322067596 8.389662027833001 -2.3508946322067596 0.3628230616302187 0 0.7206759443339961 0 1.0735586481113322 0.04970178926441352 2.0924453280318094 0.20874751491053678 3.6481113320079523 1.0487077534791251 4.612326043737575 2.485089463220676 2.783300198807157 4.174950298210736 3.8916500994035785 8.63817097415507 5.069582504970179 13.364811133200796 0.9244532803180915 3.7077534791252487 1.8737574552683898 7.539761431411531 3.7077534791252487 11.20775347912525 2.1322067594433403 4.2644135188866805 4.66699801192843 7.251491053677933 8.742544731610339 10.308151093439363 4.29920477137177 3.2206759443339963 3.538767395626243 11.401590457256463 2.355864811133201 18.255467196819083h1.4910536779324057c1.2375745526838968 -7.162027833001988 1.9433399602385688 -15.750497017892645 -2.9522862823061633 -19.423459244532804Z" stroke-width="0.497"></path><path fill="#2e3120" d="M146.32007952286284 164.03280318091453c-6.426441351888668 -4.284294234592445 -16.227634194831015 1.4910536779324057 -25.705765407554672 7.037773359840955 -5.3379721669980125 3.136182902584493 -10.382703777335985 6.093439363817097 -14.155069582504971 6.779324055666004 -10 1.819085487077535 -19.08051689860835 1.312127236580517 -29.6272365805169 0 -2.186878727634195 -0.2733598409542744 -4.681908548707754 -1.227634194831014 -7.31610337972167 -2.2365805168986084 -4.647117296222664 -1.7793240556660042 -9.44333996023857 -3.613320079522863 -13.663021868787276 -2.2067594433399607 -4.731610337972167 1.5755467196819086 -6.02882703777336 10.934393638170974 -7.067594433399603 18.4493041749503 -0.4970178926441352 3.4194831013916502 -0.9244532803180915 6.655069582504971 -1.5854870775347913 8.01192842942346 -0.27833001988071576 0.31809145129224653 -1.8737574552683898 1.1630218687872762 -3.4095427435387675 1.9880715705765408 -7.271371769383698 3.871769383697813 -22.400596421471175 11.928429423459246 -27.71371769383698 26.237574552683895 -1.8041749502982107 4.855864811133201 -3.414512922465209 10.889662027833003 0.17395626242544732 14.473161033797219 4.473161033797217 4.473161033797217 13.672962226640161 0.09940357852882704 19.169980119284293 -2.5099403578528827 0.8946322067594434 -0.4274353876739563 1.6699801192842942 -0.7952286282306164 2.301192842942346 -1.0636182902584495 11.709741550695824 -5.019880715705765 28.0168986083499 -9.831013916500995 39.17992047713718 -4.249502982107356 5.596421471172962 2.798210735586481 11.242544731610339 8.320079522862823 15.447316103379721 13.881709741550695h1.8836978131212725c-4.388667992047714 -6.0536779324055665 -10.48210735586481 -12.122266401590458 -16.665009940357855 -15.213717693836978 -3.767395626242545 -1.8836978131212725 -8.061630218687872 -2.649105367793241 -12.554671968190856 -2.649105367793241 -9.44333996023857 0 -19.751491053677935 3.374751491053678 -27.877733598409545 6.858846918489066 -0.6560636182902585 0.27833001988071576 -1.4413518886679921 0.6560636182902585 -2.355864811133201 1.088469184890656 -5.144135188866799 2.440357852882704 -13.752485089463223 6.525844930417495 -17.47514910536779 2.8031809145129225 -2.9821073558648115 -2.9821073558648115 -1.4910536779324057 -8.4493041749503 0.16898608349900598 -12.897614314115309 5.119284294234593 -13.797216699801194 19.895626242544733 -21.665009940357855 27.01789264413519 -25.452286282306165 2.823061630218688 -1.4910536779324057 3.7326043737574555 -1.9880715705765408 4.030815109343936 -2.6043737574552686 0.7753479125248509 -1.5556660039761432 1.2226640159045725 -4.776341948310139 1.7395626242544733 -8.503976143141154 0.9343936381709741 -6.734592445328032 2.2117296222664016 -15.959244532803181 6.063618290258449 -17.241550695825048 3.7077534791252487 -1.2375745526838968 8.255467196819085 0.4970178926441352 12.654075546719683 2.186878727634195 2.7286282306163026 1.043737574552684 5.298210735586482 2.0278330019880717 7.664015904572564 2.3260437375745524 10.690854870775349 1.3320079522862824 19.880715705765407 1.8439363817097416 30.084493041749504 0 4.030815109343936 -0.7306163021868788 9.184890656063619 -3.757455268389662 14.642147117296224 -6.958250497017893 8.658051689860836 -5.084493041749504 18.474155069582505 -10.84990059642147 24.120278330019882 -7.087475149105368 4.657057654075547 3.106361829025845 1.202783300198807 9.771371769383698 -1.083499005964215 14.179920477137179 -0.23856858846918488 0.4572564612326044 -0.46222664015904574 0.8896620278330021 -0.6610337972166999 1.2872763419483102 -2.9522862823061633 5.904572564612327 -11.65506958250497 16.719681908548708 -18.046719681908552 19.557654075546722l-0.8896620278330021 0.3926441351888668c-6.153081510934395 2.713717693836978 -16.446322067594437 7.256461232604374 -17.460238568588473 14.363817097415506 -1.3518886679920479 9.44333996023857 7.236580516898609 16.1779324055666 16.32703777335984 23.290258449304176 4.204771371769384 3.285288270377734 8.4493041749503 6.6202783300198815 11.709741550695824 10.273359840954276h1.9880715705765408c-3.444333996023857 -4.150099403578529 -8.170974155069583 -7.847912524850894 -12.773359840954274 -11.43141153081511 -8.742544731610339 -6.833996023856859 -16.998011928429424 -13.290258449304174 -15.77037773359841 -21.8986083499006 0.8996023856858848 -6.292246520874752 11.103379721669981 -10.795228628230616 16.58548707753479 -13.210735586481112l0.8946322067594434 -0.3976143141153082c6.784294234592446 -3.016898608349901 15.651093439363818 -14.010934393638172 18.772365805168988 -20.25347912524851l0.6510934393638171 -1.2673956262425448c2.3757455268389664 -4.612326043737575 6.351888667992047 -12.286282306163022 0.5864811133200795 -16.13320079522863Z" stroke-width="0.497"></path><path fill="#2e3120" d="M113.30815109343936 243.82902584493044c-2.0825049701789267 -2.917495029821074 -3.9314115308151094 -6.148111332007952 -5.720675944333996 -9.274353876739562 -1.113320079522863 -1.9433399602385688 -2.2664015904572565 -3.9761431411530817 -3.4791252485089466 -5.864811133200796 -2.137176938369781 -3.4194831013916502 -3.091451292246521 -7.355864811133201 -4.010934393638172 -11.167992047713717 -1.0238568588469186 -4.204771371769384 -2.077534791252485 -8.553677932405567 -4.721669980119285 -12.256461232604375 -3.6630218687872764 -5.134194831013917 -8.538767395626243 -7.455268389662028 -13.250497017892645 -9.741550695825051 -2.8578528827037775 -1.3767395626242545 -5.820079522862824 -2.8031809145129225 -8.553677932405567 -4.850894632206759 -0.8846918489065607 -0.6660039761431412 -1.8588469184890657 -1.9582504970178927 -2.887673956262425 -3.325049701789265 -2.584493041749503 -3.4393638170974157 -5.805168986083499 -7.71868787276342 -10.33300198807157 -5.467196819085487 -2.345924453280318 1.172962226640159 -3.7723658051689863 2.6143141153081513 -4.358846918489066 4.408548707753479 -0.9940357852882704 2.9821073558648115 0.6908548707753479 6.222664015904573 2.1570576540755466 9.070576540755468 1.143141153081511 2.2117296222664016 2.2216699801192843 4.309145129224652 1.6202783300198806 5.5168986083499005 -1.0586481113320079 2.1172962226640157 -4.244532803180914 3.1163021868787277 -7.057654075546719 3.9761431411530817 -1.3026838966202783 0.3653081510934394 -2.575546719681909 0.83051689860835 -3.8071073558648116 1.3916500994035785 -2.514910536779324 1.257455268389662 -24.517892644135188 12.569582504970178 -22.2713717693837 22.256461232604376 0.07231610337972166 0.4224652087475149 0.2539761431411531 0.8185884691848907 0.5269383697813121 1.1491053677932406 0.2729125248508947 0.3300198807157058 0.6275844930417495 0.5834990059642147 1.028727634194831 0.7345924453280318 3.0417495029821073 1.1232604373757455 9.378727634194831 -3.2654075546719685 16.158051689860834 -8.255467196819085 1.1968190854870775 -0.9358846918489065 2.4427932405566604 -1.8066600397614314 3.7326043737574555 -2.60934393638171 9.274304174950299 -4.63220675944334 22.813071570576543 -7.400596421471174 30.621222664015907 -2.5198807157057654 14.567594433399602 9.105367793240557 18.021868787276343 15.556660039761432 23.250497017892645 25.318091451292247 1.043737574552684 1.94831013916501 2.1570576540755466 4.025844930417495 3.4343936381709743 6.2673956262425445h1.7196819085487078c-1.4512922465208749 -2.514910536779324 -2.6888667992047717 -4.821073558648111 -3.8419483101391654 -6.958250497017893 -5.149105367793241 -9.617296222664017 -8.866799204771372 -16.565606361829026 -23.772365805168985 -25.88469184890656 -3.285288270377734 -2.047713717693837 -7.226640159045726 -2.837972166998012 -11.292246520874752 -2.837972166998012 -7.738568588469185 0 -15.904572564612327 2.8578528827037775 -20.78523856858847 5.29324055666004 -1.3789761431411531 0.8325049701789264 -2.70675944333996 1.7470178926441353 -3.9761431411530817 2.738568588469185 -4.269383697813121 3.146123260437376 -12.216699801192842 8.996023856858848 -14.756461232604375 8.056660039761432 -0.16848906560636184 -0.06709741550695826 -0.3154572564612326 -0.17892644135188868 -0.425 -0.323558648111332 -0.10949304174950299 -0.14463220675944333 -0.17738568588469186 -0.31610337972167 -0.196272365805169 -0.4965208747514911 -1.6153081510934395 -6.958250497017893 13.349900596421472 -16.51590457256461 21.486083499005964 -20.58648111332008 1.162972166998012 -0.5208747514910537 2.3622763419483106 -0.9562624254473161 3.588419483101392 -1.3021868787276343 3.091451292246521 -0.9691848906560636 6.600397614314115 -2.0675944333996026 7.952286282306163 -4.751491053677933 0.9443339960238568 -1.8836978131212725 -0.30318091451292245 -4.304174950298211 -1.6252485089463222 -6.868787276341949s-2.8479125248508947 -5.5168986083499005 -2.0626242544731612 -7.922465208747515c0.4522862823061631 -1.3916500994035785 1.635188866799205 -2.5497017892644136 3.60337972166998 -3.5337972166998015 3.1709741550695827 -1.5904572564612327 5.51192842942346 1.0785288270377733 8.479125248508947 5.0149105367793245 1.0934393638170976 1.4562624254473162 2.127236580516899 2.8330019880715707 3.1809145129224654 3.6232604373757455 2.8479125248508947 2.137176938369781 5.874751491053678 3.593439363817098 8.802186878727635 5 4.751491053677933 2.286282306163022 9.239562624254473 4.443339960238569 12.68389662027833 9.26441351888668 2.485089463220676 3.4791252485089466 3.4493041749502984 7.490059642147117 4.473161033797217 11.744532803180915 0.9493041749502982 3.9264413518886685 1.933399602385686 7.982107355864811 4.199801192842942 11.605367793240557 1.1779324055666005 1.8836978131212725 2.3210735586481115 3.881709741550696 3.4244532803180916 5.815109343936381 1.8091451292246523 3.156063618290258 3.6779324055666005 6.421471172962227 5.805168986083499 9.398608349900597 1.0427435387673956 1.3836978131212723 2.190854870775348 2.6848906560636183 3.4343936381709743 3.8916500994035785l0.02982107355864811 0.02982107355864811h2.077534791252485c-0.3429423459244533 -0.3628230616302187 -0.6958250497017893 -0.7206759443339961 -1.0387673956262424 -1.0735586481113322 -1.172465208747515 -1.1486083499005963 -2.257455268389662 -2.382703777335984 -3.245526838966203 -3.6928429423459246Z" stroke-width="0.497"></path><path fill="#2e3120" d="M40.46028827037773 247.01491053677935c-2.0667495029821072 0.23111332007952287 -4.087176938369781 0.7703777335984096 -5.994035785288271 1.6003976143141154h5.178926441351889c0.31312127236580517 -0.04970178926441352 0.6262425447316103 -0.09443339960238568 0.9343936381709741 -0.1143141153081511 2.903727634194831 -0.21421471172962228 5.820576540755468 -0.17594433399602386 8.717693836978132 0.1143141153081511h8.807107355864812c-5.759940357852883 -1.4612326043737576 -11.715109343936382 -2.0014910536779325 -17.644085487077533 -1.6003976143141154Z" stroke-width="0.497"></path><path fill="#2e3120" d="M35.32604373757455 168.6948310139165c-1.5705765407554673 -0.8449304174950298 -3.05168986083499 -1.6451292246520877 -4.37375745526839 -2.440357852882704 -2.7784791252485093 -1.7335984095427437 -5.4354373757455265 -3.65506958250497 -7.952286282306163 -5.750497017892645 -6.153081510934395 -4.895626242544732 -11.973161033797217 -9.522862823061631 -22.907537276341948 -8.807157057654075v1.4910536779324057C10.529821073558649 152.4821073558648 15.877733598409543 156.74155069582505 22.065606361829026 161.67196819085487c2.570526838966203 2.135188866799205 5.282157057654076 4.094433399602385 8.116302186878727 5.864811133200796 1.356858846918489 0.8101391650099403 2.852882703777336 1.6153081510934395 4.438369781312128 2.485089463220676 3.7077534791252487 1.9880715705765408 7.544731610337973 4.065606361829026 9.85089463220676 6.3717693836978135 0.44234592445328036 0.44234592445328036 0.352882703777336 2.2365805168986084 0.3081510934393638 3.1013916500994037 0 0.3230616302186879 -0.02982107355864811 0.6163021868787276 -0.02982107355864811 0.8499005964214712 0 6.207753479125249 -1.6451292246520877 11.65506958250497 -9.671968190854871 18.08151093439364 -1.4910536779324057 1.1928429423459244 -3.3051689860834994 1.878727634194831 -5.223658051689861 2.599403578528827 -2.0825049701789267 0.790258449304175 -4.239562624254473 1.6053677932405568 -5.999005964214712 3.1411530815109345 -13.175944333996025 11.515904572564613 -27.18685884691849 28.444333996023857 -20.50196819085487 44.44831013916502H4.9831013916500995c-6.933379721669981 -15.357852882703778 6.893638170974155 -31.998011928429424 19.880715705765407 -43.339960238568594 1.5506958250497018 -1.3618290258449306 3.4791252485089466 -2.0924453280318094 5.541749502982108 -2.8677932405566597 1.9433399602385688 -0.7355864811133201 3.9761431411530817 -1.4910536779324057 5.6262425447316105 -2.8330019880715707 6.143141153081511 -4.915506958250497 10.233598409542743 -10.064612326043738 10.233598409542743 -19.244532803180913 0 -0.21371769383697814 0 -0.4970178926441352 0.02982107355864811 -0.7753479125248509 0.07455268389662027 -1.4910536779324057 0.16401590457256462 -3.320079522862823 -0.7455268389662029 -4.229622266401591 -2.485089463220676 -2.4602385685884696 -6.416500994035785 -4.577534791252486 -10.223658051689862 -6.630218687872763Z" stroke-width="0.497"></path><path fill="#2e3120" d="M0.0924627236580517 208.57057654075547v1.6749502982107356c0.33146570576540757 0.19831013916500995 0.6384120278330021 0.43538767395626243 0.914515407554672 0.705765407554672 0.3677932405566601 0.37276341948310143 0.4970178926441352 1.2127236580516898 0.2882703777335984 2.3608349900596424 -0.25124254473161034 1.3195825049701788 -0.6548757455268389 2.6053677932405566 -1.2027857852882704 3.832007952286282v3.4244532803180916c1.282308648111332 -2.39065606361829 2.3459269383697814 -4.995029821073559 2.6739587475149107 -7.0178926441351885 0.2733598409542744 -1.6848906560636183 0.03479125248508947 -2.9125248508946324 -0.705765407554672 -3.6530815109343937 -0.5709642147117296 -0.5571570576540755 -1.2376938369781312 -1.0069582504970178 -1.9681933399602387 -1.3270377733598409Z" stroke-width="0.497"></path><path fill="#2e3120" d="M16.548707753479125 175.09642147117296c-0.9940357852882704 -1.679920477137177 -2.0178926441351885 -3.4194831013916502 -4.025844930417495 -4.6222664015904575 -2.9423459244532806 -1.7644135188866799 -7.311133200795229 -2.7634194831013916 -12.425424950298211 -2.8727634194831015v1.4910536779324057c4.502984592445328 0.10934393638170975 8.787253976143141 0.9294234592445328 11.664987574552685 2.6540755467196817 1.679920477137177 0.9940357852882704 2.5646123260437377 2.485089463220676 3.503976143141153 4.105367793240557 0.5229125248508947 0.9358846918489065 1.1125745526838968 1.8325049701789264 1.7644135188866799 2.6838966202783303 3.7375745526838964 4.671968190854871 5.069582504970179 8.4493041749503 3.9761431411530817 11.232604373757457 -2.0974155069582503 5.21868787276342 -12.30616302186879 6.749502982107356 -20.87472912524851 7.887673956262425v1.4910536779324057C9.143141153081512 197.9493041749503 19.97316103379722 196.3588469184891 22.40357852882704 190.31013916500996c1.3518886679920479 -3.3648111332007953 0 -7.524850894632207 -4.169980119284294 -12.723658051689862 -0.620427435387674 -0.7887673956262425 -1.1834990059642148 -1.6207753479125249 -1.6848906560636183 -2.4900596421471173Z" stroke-width="0.497"></path><path fill="#2e3120" d="M128.8200795228628 71.448310139165c-1.0337972166998013 -0.3827037773359841 -1.9880715705765408 -0.8151093439363817 -2.922465208747515 -1.2326043737574552 -2.256461232604374 -1.018886679920477 -4.388667992047714 -1.9880715705765408 -7.2664015904572565 -2.2365805168986084 -7.380715705765407 -0.6709741550695826 -16.40159045725646 0.7306163021868788 -25.929423459244536 2.2117296222664016 -16.54075546719682 2.5745526838966204 -33.64811133200796 5.2286282306163026 -46.00397614314116 -1.8290258449304175 -9.035785288270377 -5.164015904572565 -13.469184890656065 -14.22962226640159 -17.75844930417495 -22.99224652087475 -4.174950298210736 -8.523856858846917 -8.111332007952287 -16.57554671968191 -15.904572564612327 -21.257455268389663 -3.6232604373757455 -2.176938369781312 -8.180894632206758 -2.9821073558648115 -12.922447813121273 -2.852882703777336v1.4910536779324057c4.100400099403578 -0.10437375745526839 8.558630715705766 0.4970178926441352 12.181891153081512 2.6441351888667994 7.42544731610338 4.473161033797217 11.272365805168986 12.316103379721671 15.342942345924454 20.636182902584494 4.388667992047714 8.94652087475149 8.946322067594433 18.235785288270378 18.359840954274354 23.628429423459245 12.813121272365807 7.321073558648112 30.959244532803183 4.473161033797217 46.97316103379722 1.9880715705765408 9.44333996023857 -1.4910536779324057 18.389662027833 -2.8578528827037775 25.566600397614312 -2.201789264413519 2.6292246520874754 0.23856858846918488 4.652087475149105 1.1481113320079523 6.789264413518887 2.1073558648111335 0.9493041749502982 0.4274353876739563 1.933399602385686 0.8697813121272366 3.006958250497018 1.2723658051689861 10.308151093439363 3.866799204771372 16.05864811133201 7.5894632206759445 19.234592445328033 12.455268389662027 3.5188866799204774 5.392644135188867 4.135188866799205 12.559642147117296 1.9880715705765408 23.245526838966207 -1.1232604373757455 5.601391650099403 -3.3399602385685885 10.019880715705765 -5.685884691848907 14.696819085487078 -1.6088469184890657 3.0616302186878728 -3.0377733598409544 6.214711729622266 -4.279324055666004 9.44333996023857 -0.7718687872763419 2.2619284294234596 -1.4239562624254474 4.562624254473161 -1.9532803180914515 6.893638170974155 -1.1829025844930416 4.8011928429423465 -2.405566600397614 9.761431411530817 -5.616302186878729 13.41948310139165 -9.358846918489066 10.700795228628232 -23.320079522862823 16.794234592445328 -40.37276341948311 17.629224652087476 -14.52286282306163 0.705765407554672 -30.81510934393638 -2.5596421471172963 -44.69184890656064 -8.946322067594433 -5.114314115308151 -2.3359840954274356 -9.985089463220676 -5.492047713717694 -14.681908548707753 -8.56361829025845 -6.336978131212724 -4.1252485089463224 -12.852882703777336 -8.389662027833001 -20.25347912524851 -10.84493041749503 -3.4791252485089466 -1.1630218687872762 -7.514890656063619 -1.5308151093439364 -11.928412027833001 -1.113320079522863v1.4910536779324057c4.2743563618290255 -0.41749502982107356 8.146105864811133 -0.07455268389662027 11.471155566600398 1.0337972166998013 7.201789264413519 2.4005964214711732 13.658051689860836 6.610337972166999 19.880715705765407 10.680914512922465 4.756461232604374 3.091451292246521 9.652087475149106 6.297216699801193 14.870775347912526 8.702783300198808 12.987077534791252 5.940357852882704 27.081013916500996 9.073558648111332 41.36182902584493 9.1948310139165 1.3583499005964215 0 2.7022862823061633 -0.03330019880715706 4.030815109343936 -0.09940357852882704 17.46520874751491 -0.8499005964214712 31.809145129224653 -7.1222664015904575 41.42147117296223 -18.136182902584494 3.4493041749502984 -3.9363817097415508 4.716699801192843 -9.08051689860835 5.939363817097416 -14.050695825049702 0.5164015904572564 -2.2788270377733597 1.153578528827038 -4.52882703777336 1.908548707753479 -6.739562624254473 1.22117296222664 -3.1809145129224654 2.6267395626242545 -6.287773359840954 4.209741550695825 -9.30417495029821 2.286282306163022 -4.562624254473161 4.657057654075547 -9.274353876739562 5.815109343936381 -15.07455268389662 2.2216699801192843 -11.09840954274354 1.5357852882703777 -18.60834990059642 -2.2117296222664016 -24.353876739562626 -3.359840954274354 -5.154075546719682 -9.324055666003977 -9.050695825049702 -19.970178926441353 -13.036779324055667Z" stroke-width="0.497"></path><path fill="#2e3120" d="M106.31013916500994 81.61729622266402c-6.426441351888668 -1.6053677932405568 -12.872763419483102 -0.5864811133200795 -19.110337972167 0.3976143141153082 -1.863817097415507 0.29324055666003973 -3.7872763419483104 0.5964214711729622 -5.666003976143141 0.8250497017892644 -1.5755467196819086 0.18886679920477137 -3.1610337972167 0.38767395626242546 -4.751491053677933 0.5864811133200795 -12.798210735586482 1.6053677932405568 -26.02882703777336 3.2654075546719685 -38.56858846918489 0.41749502982107356 -10.099403578528827 -2.2813121272365806 -22.097415506958253 -10.854870775347912 -24.70178926441352 -21.227634194831015 -0.6858846918489065 -2.743538767395626 -0.5964214711729622 -5.964214711729623 -0.4970178926441352 -9.44333996023857 0.20377733598409542 -7.316302186878728 0.437375745526839 -15.611530815109344 -8.131192842942347 -18.8272365805169 -1.5383300198807157 -0.5457256461232605 -3.158991053677932 -0.8231610337972167 -4.791254970178927 -0.820079522862823v1.4910536779324057c1.4568861829025845 -0.0021371769383697814 2.9030989065606363 0.2484592445328032 4.2743563618290255 0.7405566600397615C11.93638170974155 38.600198807157064 11.737574552683897 45.66282306163022 11.528827037773361 53.1530815109344c-0.09443339960238568 3.3846918489065607 -0.18886679920477137 6.878727634194831 0.5467196819085488 9.826043737574553 1.6302186878727634 6.5159045725646125 6.346918489065606 11.43141153081511 10.019880715705765 14.41351888667992 4.676938369781312 3.807157057654076 10.43737574552684 6.684890656063618 15.790258449304176 7.90258449304175 12.79324055666004 2.9075546719681906 26.158051689860837 1.2326043737574552 39.08051689860835 -0.38767395626242546 1.5904572564612327 -0.20377733598409542 3.1759443339960236 -0.3976143141153082 4.741550695825049 -0.5864811133200795 1.908548707753479 -0.2286282306163022 3.8469184890656067 -0.5367793240556661 5.725646123260438 -0.8349900596421471 6.0884691848906565 -0.9592445328031809 12.385685884691851 -1.9532803180914515 18.513916500994036 -0.4224652087475149 6.327037773359842 1.58051689860835 12.857852882703778 5.6958250497017895 17.470178926441353 11.008946322067594 5.064612326043737 5.825049701789265 7.365805168986084 12.42544731610338 6.461232604373758 18.613320079522865 -1.3866799204771372 9.726640159045726 -6.8737574552683895 18.230616302186878 -16.31212723658052 25.268389662027836 -16.8986083499006 12.589463220675944 -41.74950298210736 16.79920477137177 -57.60437375745527 14.453280318091451 -7.162027833001988 -1.0487077534791251 -13.846918489065606 -4.428429423459245 -20.318091451292247 -7.668986083499006 -2.430417495029821 -1.227634194831014 -4.970178926441352 -2.485089463220676 -7.455268389662028 -3.6232604373757455 -3.9015904572564613 -1.7544731610337971 -7.380715705765407 -4.970178926441352 -11.06858846918489 -8.359840954274354 -5.099403578528827 -4.756461232604374 -10.387673956262425 -9.607355864811133 -17.02781560636183 -10.48210735586481v1.5208747514910537C6.225646123260438 124.70874751491054 11.240556660039761 129.331013916501 16.12624254473161 133.8041749502982c3.6083499005964215 3.3300198807157058 7.345924453280318 6.774353876739563 11.466202783300199 8.628230616302186 2.485089463220676 1.1083499005964215 4.970178926441352 2.3707753479125246 7.380715705765407 3.593439363817098 6.575546719681909 3.320079522862823 13.369781312127236 6.754473161033798 20.790258449304176 7.852882703777337 16.158051689860834 2.39065606361829 41.51093439363817 -1.8986083499005963 58.717693836978135 -14.731610337972167 9.6272365805169 -7.181908548707753 15.467196819085489 -16.262425447316105 16.8986083499006 -26.257455268389663 0.9393638170974155 -6.610337972166999 -1.4910536779324057 -13.643141153081512 -6.833996023856859 -19.80119284294235 -4.806163021868787 -5.506958250497018 -11.630218687872762 -9.801192842942346 -18.23558648111332 -11.471172962226639Z" stroke-width="0.497"></path><path fill="#2e3120" d="M69.779324055666 98.74453280318092c-3.156063618290258 -1.2624254473161034 -6.461232604373758 -2.485089463220676 -9.647117296222664 -3.6630218687872764 -6.361829025844931 -2.3608349900596424 -12.972166998011929 -4.8011928429423465 -18.78727634194831 -7.698807157057654 -1.848906560636183 -0.9244532803180915 -4.274353876739562 -0.8300198807157058 -6.6202783300198815 -0.7355864811133201 -1.3247017892644135 0.10188866799204771 -2.6561630218687875 0.07703777335984095 -3.9761431411530817 -0.07455268389662027 -3.4194831013916502 -0.5715705765407555 -7.60934393638171 -2.8976143141153083 -10.87972166998012 -4.855864811133201 -5.7654075546719685 -3.4791252485089466 -12.763419483101393 -11.819085487077535 -14.00596421471173 -19.28926441351889 -0.2733598409542744 -1.6252485089463222 -0.41749502982107356 -3.359840954274354 -0.5765407554671969 -5.193836978131213 -0.4522713717693837 -5.437375745526839 -0.9691650099403578 -11.51610337972167 -5.193819582504971 -14.97037773359841v2.077534791252485c2.877736083499006 3.1759443339960236 3.3051714711729625 8.161232604373758 3.7176963220675945 13.027037773359842 0.15904572564612326 1.863817097415507 0.31312127236580517 3.6232604373757455 0.5914512922465208 5.308151093439363 1.3170775347912527 7.892644135188868 8.658031809145129 16.694831013916502 14.711709741550695 20.32306163021869 3.3797216699801194 2.0278330019880717 7.7286282306163026 4.438369781312128 11.401590457256463 5.049701789264414 1.4233598409542743 0.16998011928429424 2.859840954274354 0.20129224652087477 4.289264413518887 0.09443339960238568 2.1570576540755466 -0.08449304174950299 4.388667992047714 -0.17395626242544732 5.894632206759443 0.5765407554671969 5.864811133200796 2.932405566600398 12.5 5.387673956262425 18.916500994035786 7.763419483101392 3.1809145129224654 1.1779324055666005 6.461232604373758 2.395626242544732 9.612326043737575 3.6530815109343937 6.1232604373757455 2.4502982107355864 16.640159045725646 11.118290258449305 14.910536779324056 18.951292246520875 -1.1928429423459244 5.377733598409543 -5.795228628230617 9.120278330019882 -9.44333996023857 11.307157057654075 -4.460735586481113 2.6053677932405566 -9.363817097415508 4.366302186878728 -14.463220675944335 5.193836978131213 -13.364811133200796 2.0576540755467194 -34.44333996023857 -9.209741550695826 -49.831013916501 -17.430417495029822 -3.1510934393638173 -1.6848906560636183 -6.12324055666004 -3.27037773359841 -8.643121272365805 -4.532803180914513 -0.5616302186878728 -0.28330019880715707 -1.1182902584493042 -0.5566600397614315 -1.6650124254473162 -0.8250497017892644v1.6650099403578529l0.9940382703777335 0.4970178926441352c2.485089463220676 1.2524850894632207 5.467176938369781 2.837972166998012 8.603359840954274 4.512922465208748 14.284294234592444 7.634194831013916 33.40457256461232 17.852882703777336 47.166998011928435 17.852882703777336 1.202783300198807 0.0044731610337972166 2.4040755467196817 -0.08349900596421472 3.593439363817098 -0.2634194831013917 8.827037773359843 -1.356858846918489 22.79821073558648 -7.176938369781312 25.124254473161034 -17.654075546719685 1.9532803180914515 -8.772365805168986 -9.070576540755468 -17.97713717693837 -15.795228628230618 -20.66600397614314Z" stroke-width="0.497"></path><path fill="#2e3120" d="m36.90159045725646 94.53976143141153 -0.9940357852882704 -0.2634194831013917 -3.091451292246521 -0.8250497017892644c-8.797216699801194 -2.3359840954274356 -20.84493041749503 -5.531809145129225 -26.8389662027833 -10.65606361829026 -2.2067395626242545 -1.9284294234592445 -4.324035785288271 -5.253479125248509 -5.884674453280318 -8.692842942345925v3.334990059642147c1.4264438369781312 2.5795228628230618 3.131215208747515 4.920477137176939 4.970161530815109 6.461232604373758 6.237574552683897 5.342942345924453 18.474155069582505 8.593439363817097 27.410536779324055 10.964214711729621 1.088469184890656 0.2882703777335984 2.122266401590457 0.5616302186878728 3.081510934393638 0.8250497017892644l0.9940357852882704 0.2634194831013917c5.258449304174951 1.4015904572564613 9.801192842942346 2.6143141153081513 8.633200795228628 9.035785288270377 -0.4970178926441352 2.599403578528827 -2.072564612326044 4.8757455268389664 -4.627236580516899 6.585487077534792 -3.8518886679920477 2.5795228628230618 -9.726640159045726 3.697813121272366 -14.289264413518888 2.7186878727634194 -7.221669980119284 -1.5159045725646123 -14.244532803180915 -7.271371769383698 -21.008946322067597 -12.842942345924454 -1.7395427435387676 -1.426441351888668 -3.4791053677932404 -2.837972166998012 -5.163998508946323 -4.169980119284294v1.8986083499005963c1.3916525844930419 1.1083499005964215 2.7982132206759442 2.261431411530815 4.219679423459245 3.4244532803180916 6.913503976143141 5.680914512922465 14.065591451292246 11.555666003976144 21.610323061630222 13.170974155069583 1.2713220675944334 0.2678926441351889 2.5675944333996026 0.39960238568588474 3.866799204771372 0.3926441351888668 4.09075546719682 0.015407554671968192 8.10054671968191 -1.140159045725646 11.555666003976144 -3.3300198807157058 2.8976143141153083 -1.9383697813121272 4.716699801192843 -4.5526838966202785 5.263419483101392 -7.559642147117297 1.426441351888668 -7.753479125248509 -4.48807157057654 -9.348906560636182 -9.706759443339962 -10.735586481113321Z" stroke-width="0.497"></path></svg>